<svg width="102" height="103" viewBox="0 0 102 103" fill="none" xmlns="http://www.w3.org/2000/svg">
<path d="M51 79.0476C52.1783 79.8139 53.3941 80.5197 54.6428 81.1624V99.3221C54.6428 100.298 54.2591 101.233 53.5759 101.923C52.8927 102.613 51.9661 103 51 103C50.0339 103 49.1073 102.613 48.4241 101.923C47.741 101.233 47.3572 100.298 47.3572 99.3221V81.1624C48.6059 80.5197 49.8217 79.8139 51 79.0476ZM82.9205 21.4424C80.2853 15.0899 75.8494 9.6654 70.1701 5.85039C64.4908 2.03537 57.8215 0 51 0C44.1785 0 37.5092 2.03537 31.8299 5.85039C26.1506 9.6654 21.7147 15.0899 19.0795 21.4424C13.4094 24.0952 8.6042 28.3227 5.22561 33.6307C1.84702 38.9387 0.0345754 45.1079 0.000108119 51.4173C-0.0454275 69.2552 14.2983 84.1507 31.9206 84.6105C37.2678 84.7515 42.5679 83.5677 47.3572 81.1624V64.7957L27.5036 54.8194C26.6341 54.3804 25.9729 53.6107 25.6655 52.6796C25.5132 52.2185 25.4525 51.7317 25.4866 51.2469C25.5207 50.7621 25.6491 50.2889 25.8643 49.8542C26.0796 49.4195 26.3776 49.0319 26.7412 48.7135C27.1049 48.395 27.5271 48.1521 27.9838 47.9984C28.906 47.688 29.9127 47.7602 30.7822 48.1992L47.3572 56.6124V33.1197C47.3572 32.1443 47.741 31.2088 48.4241 30.5191C49.1073 29.8293 50.0339 29.4418 51 29.4418C51.9661 29.4418 52.8927 29.8293 53.5759 30.5191C54.2591 31.2088 54.6428 32.1443 54.6428 33.1197V45.5786L71.2178 37.1654C72.0873 36.7265 73.094 36.6543 74.0162 36.9646C74.9385 37.275 75.7009 37.9426 76.1357 38.8205C76.5704 39.6984 76.642 40.7147 76.3345 41.6459C76.0271 42.577 75.3659 43.3467 74.4964 43.7857L54.6428 53.762V81.1624C59.1717 83.4306 64.1588 84.6107 69.2142 84.6105H70.0794C87.7017 84.1507 102.045 69.2552 102 51.4173C101.965 45.1079 100.153 38.9387 96.7744 33.6307C93.3958 28.3227 88.5906 24.0952 82.9205 21.4424Z" fill="white"/>
</svg>
